<?xml version="1.0" encoding="UTF-8" standalone="no"?>
<!DOCTYPE svg PUBLIC "-//W3C//DTD SVG 1.1//EN" "http://www.w3.org/Graphics/SVG/1.1/DTD/svg11.dtd">
<svg width="100%" height="100%" viewBox="0 0 240 234" version="1.1" xmlns="http://www.w3.org/2000/svg" xmlns:xlink="http://www.w3.org/1999/xlink" xml:space="preserve" xmlns:serif="http://www.serif.com/" style="fill-rule:evenodd;clip-rule:evenodd;stroke-linejoin:round;stroke-miterlimit:2;">
    <g>
        <rect x="10" y="10" width="220" height="213.999"/>
    </g>
    <g>
        <path d="M0,0L0,233.999L240.001,233.999L240.001,0L0,0ZM10,10L230.001,10L230.001,223.999L10,223.999L10,10Z" style="fill:white;"/>
    </g>
    <path d="M60.99,158.802C60.33,158.308 60,157.648 60,156.657L60,140.817C60,140.321 60.66,139.827 61.32,140.321C68.745,145.436 77.424,147.747 85.674,147.747C97.719,147.747 102.669,141.477 102.669,134.382C102.669,128.112 99.534,122.997 87.984,116.232L82.044,113.097C65.05,103.527 60.1,93.793 60.1,81.418C60.1,64.588 71.815,51.058 93.925,51.058C103.66,51.058 110.885,52.543 115.01,54.853C115.835,55.183 116,55.678 116,56.668L116,71.518C116,72.178 115.34,72.672 114.68,72.178C109.565,68.877 102.01,67.228 94.255,67.228C81.55,67.228 77.425,74.488 77.425,80.263C77.425,86.533 80.56,91.153 91.945,97.422L97.225,100.228C116.035,110.624 120.82,120.687 120.82,133.062C120.82,151.376 107.455,164.082 85.675,164.082C75.94,164.081 67.094,162.267 60.99,158.802ZM175.5,160.287C175.5,161.113 175.17,161.773 174.344,162.103C170.879,163.421 167.084,164.082 162.135,164.082C149.594,164.082 142.5,157.482 142.5,141.973L142.5,97L133.013,97C132.188,97 132,96.67 132,95.845L132,82.57C132,81.745 132.165,81.25 133.155,81.25L142.642,81.25C142.808,75.475 143.468,65.41 144.127,62.275C144.127,61.12 144.623,60.793 145.281,60.627L160.133,58.648C160.793,58.483 161.287,58.645 161.287,59.47C160.957,64.255 160.793,72.34 160.627,81.25L175.094,81.25C175.92,81.25 176.25,81.58 176.25,82.405L176.25,96.01C176.25,96.835 175.754,97 175.094,97L160.5,97L160.5,138.91C160.5,145.676 162.811,148.738 168.914,148.738C170.895,148.738 172.529,148.572 174.51,148.078C175.004,147.912 175.5,148.242 175.5,149.068L175.5,160.287Z" style="fill:rgb(242,13,13);"/>
</svg>
