<?xml version="1.0" encoding="UTF-8" standalone="no"?>
<!DOCTYPE svg PUBLIC "-//W3C//DTD SVG 1.1//EN" "http://www.w3.org/Graphics/SVG/1.1/DTD/svg11.dtd">
<svg width="100%" height="100%" viewBox="0 0 1104 929" version="1.1" xmlns="http://www.w3.org/2000/svg" xmlns:xlink="http://www.w3.org/1999/xlink" xml:space="preserve" xmlns:serif="http://www.serif.com/" style="fill-rule:evenodd;clip-rule:evenodd;stroke-linejoin:round;stroke-miterlimit:2;">
    <g transform="matrix(1,0,0,1,-498.417,-385.064)">
        <g transform="matrix(1,0,0,1,-0.0254095,100.488)">
            <path d="M918.817,1170.19C910.906,1145.92 904.387,1120.72 898.978,1095.19C894.317,1112.68 889.876,1130.46 885.664,1148C869.194,1094.96 873.9,1113.11 885.374,1048.3C933.83,1072.84 950.242,1150.37 918.817,1170.19ZM916.706,1193.25C951.769,1213.73 986.215,1218.07 1020.04,1206.29C983.599,1202.6 957.207,1193.49 940.864,1178.95C962.044,1157 957.619,1119.53 945.633,1098.32C939.682,1086.61 928.42,1071.89 921.304,1063.81C898.761,1037 880.907,1025.28 869.717,993.426C864.989,978.892 863.023,966.858 859.65,951.427C856.399,936.03 853.234,920.689 848.784,906.096C854.382,932.04 857.947,963.705 859.868,1000.87C860.596,1007.3 860.984,1013.5 860.962,1019.63L861.008,1019.71C861.021,1021.07 860.95,1022.38 860.923,1023.77C849.082,1004.74 837.973,985.176 827.493,965.351C816.315,944.776 807.427,929.823 803.332,901.632C799.299,872.561 800.433,833.299 797.193,800.495C797.556,839.725 791.954,877.587 791,913.579C781.353,896.432 777.873,876.529 767.788,858.901C756.099,837.99 752.89,828.473 752.89,799.156C752.938,761.795 768.63,704.122 758.052,672.333C756.853,691.909 754.056,714.109 749.963,738.644C749.479,742.197 748.814,746.063 747.946,750.473C744.623,769.181 741.209,781.3 738.067,794.418C730.784,760.495 722.726,741.155 721.204,706.82C717.883,679.864 717.146,654.561 718.949,630.836C717.696,637.895 716.583,644.661 715.6,650.929C712.063,673.56 711.782,705.255 707.334,723.462C706.635,720.389 706.804,721.661 705.913,716.382C705.2,708.994 704.488,701.607 703.929,694.128C700.421,662.114 694.093,637.333 698.315,601.755C701.124,579.127 706.511,556.895 711.088,534.078C716.433,510.077 717.385,489.274 718.442,467.669C714.744,490.92 697.972,565.15 685.883,587.078C690.705,576.565 682.512,510.163 684.461,487.407C684.746,484.498 685.07,481.567 685.486,478.794C685.631,466.264 686.13,454.16 687.023,442.462C676.164,477.487 661.64,509.273 644.616,541.782C618.756,489.812 624.188,376.854 617.419,317.004C608.874,342.137 610.805,409.347 607.892,439.838C603.852,484.487 585.316,524.418 581.064,568.344C570.555,560.983 562.994,547.049 557.579,529.645C550.643,510.705 545.16,492.288 541.317,474.178C546.906,512.886 555.299,556.393 555.538,586.204C555.502,599.195 554.498,611.593 555.675,623.351C557.271,638.238 561.299,646.748 561.065,659.75C536.269,630.78 524.25,577.579 504.095,547.798C504.229,548.564 504.326,549.352 504.414,550.037C518.836,579.476 533.386,620.124 548.282,671.643C548.06,671.351 547.76,671.105 547.576,670.789C557.547,700.824 555.861,729.755 568.125,760.139C569.969,765.177 571.954,770.452 573.762,775.512C548.667,753.361 518.861,701.689 498.442,673.959C511.665,717.07 537.351,741.935 559.718,782.027C578.652,813.471 579.623,874.386 608.599,893.534C590.857,887.547 526.106,820.003 505.598,803.291C522.089,832.156 558.076,861.973 580.701,891.157C605.269,921.526 611.623,952.513 640.321,982.895C594.917,970.915 557.518,913.659 527.865,887.63C533.468,906.61 597.323,973.517 612.104,990.515C630.083,1010.49 637.168,1022.81 648.989,1041.53C659.853,1053.43 671.009,1065.48 682.742,1077.08C697.97,1087.7 687.365,1076.6 698.514,1089.7C682.239,1084.44 668.395,1078.61 656.219,1072.32C657.102,1073.39 658.063,1074.41 659.024,1075.43C621.691,1056.63 592,1035.89 570.025,1013.19C571.085,1014.47 572.183,1015.72 573.283,1016.98C600.021,1045.34 627.326,1066.1 663.713,1087.03C755.186,1132.33 755.908,1199.61 881.386,1199.75C885.868,1199.55 889.867,1199.43 893.456,1199.24C902.342,1197.54 910.089,1195.55 916.706,1193.25ZM895.336,1184.85C868.745,1195.53 810.492,1179.24 787.411,1166.88C772.012,1158.47 757.886,1140.35 743.359,1125.84C739.417,1121.5 735.381,1117 731.462,1112.44C762.199,1115.48 787.884,1116.3 819.806,1130.03C845.813,1139.63 870.878,1153.15 880.263,1165.92C842.636,1162.79 832.486,1158.27 801.069,1150.68C833.811,1177.43 849.217,1168.96 895.336,1184.85ZM807.097,1085.57C777.354,1050.63 791.086,1000.95 806.554,964.08C823.827,985.528 879.232,1060.22 830.632,1102.73C811.347,1087.31 824.608,1046.03 814.206,1025C811.283,1045.37 809.034,1065.56 807.097,1085.57ZM779.65,1091.47C752.242,1097.35 709.195,1076.72 690.357,1060.72C670.772,1042.73 662.498,1026.68 645.378,1005.68C734.342,1002.98 781.132,1058.44 779.368,1072.76C744.574,1067.24 730.3,1056.38 704.165,1043.17C715.953,1063.18 759.075,1078.49 779.65,1091.47ZM742.051,983.289C719.84,938.994 731.279,915.865 748.41,860.302C753.614,867.069 749.979,861.916 754.521,870.232C781.127,916.6 793.089,952.012 763.316,1009.79C759.249,1004.25 759.802,1006.99 757.8,997.927C754.006,980.528 762.864,944.666 752.132,917.08C748.598,939.18 745.064,961.281 742.051,983.289ZM712.254,997.947C667.378,1000.63 621.171,944.828 614.331,914.969C651.727,918.865 716.976,946.152 719.011,983.244C681.979,974.072 672.51,958.299 648.484,943.432C668.645,977.957 700.227,982.086 712.254,997.947ZM699.668,884.966C681.096,847.617 682.443,813.821 711.873,761.623C732.699,789.96 735.57,880.138 713.046,901.62C712.748,880.914 715.293,848.002 708.257,829.964C705.2,848.411 702.343,866.847 699.668,884.966ZM676.446,913.923C644.575,905.008 623.917,894.924 607.747,871.252C597.956,856.72 587.833,824.456 587.826,807.374C610.378,817.935 635.836,825.427 654.214,841.8C670.325,855.804 681.602,877.799 682.008,894.224C646.71,880.243 641.477,867.796 618.243,850.886C626.189,866.282 627.696,871.098 644.012,884.562C655.884,894.08 669.625,902.509 676.446,913.923ZM663.429,780.63C644.614,755.022 647.765,685.793 676.389,660.01C682.255,654.687 676.705,658.138 683.49,655.549C682.975,669.769 685.545,673.014 688.044,688.639C689.581,697.972 690.886,709.864 691.207,719.169C692.053,740.189 690.069,764.231 678.523,785.21C679.023,770.786 673.455,716.562 668.39,702.436C666.568,728.809 664.836,754.709 663.429,780.63ZM638.435,809.145C615.539,805.324 563.121,757.469 570.997,693.919C594.104,706.054 615.251,711.528 629.378,734.918C642.386,755.586 645.29,769.497 647.539,791.49C622.941,777.696 606.141,755.447 592.258,736.766C604.502,779.182 622.801,780.941 638.435,809.145ZM641.39,647.437C636.045,632.208 635.129,612.496 638.729,590.779C642.599,567.11 657.33,545.327 668.435,522.074C678.332,546.35 678.266,606.923 654.834,644.544C649.968,626.294 666.846,598.09 659.2,577.665C653.784,601.814 645.597,622.201 641.39,647.437ZM621.775,698.123C597.778,687.773 581.518,669.217 575.406,648.74C569.915,630.221 566.742,604.233 570.718,583.246C604.719,608.318 631.755,638.089 631.371,673.536C604.54,656.723 604.648,649.489 586.656,629.936C585.772,655.236 618.707,674.815 621.775,698.123ZM610.629,596.008C585.104,567.04 602.961,537.21 612.366,493.437C635.161,515.139 632.247,567.881 624.339,599.919C615.041,586.049 618.219,572.277 613.218,556.741C608.204,571.48 612.54,582.659 610.629,596.008Z" style="fill:rgb(210,169,7);"/>
            <path d="M1274.74,759.482C1249.03,764.025 1236.17,766.296 1236.17,766.296C1263.48,803.345 1268.21,839.225 1250.37,873.936C1243.97,890.048 1244.27,904.701 1251.26,917.892C1242.18,916.794 1234.18,915.01 1227.26,912.544C1225.42,962.069 1210.46,1000.82 1182.36,1028.8C1167.1,1023.1 1157.34,1015.42 1153.08,1005.77C1134.55,1058.2 1102.8,1093.47 1057.82,1111.6C1030.77,1084.94 1014.42,1060.78 1008.78,1039.12C1006.84,1040.26 1004.83,1041.34 1002.76,1042.36C991.271,1051.25 970.016,1060.6 938.991,1070.4C942.95,1060.06 944.681,1046.79 944.184,1030.57C942.341,1010.82 943.824,996.205 948.632,986.721L948.625,986.135C948.314,986.218 947.998,986.307 947.677,986.401C935.366,996.499 917.673,1001.2 894.595,1000.51C899.122,995.759 900.224,981.877 897.903,958.87C897.361,955.355 896.956,951.838 896.684,948.328L896.679,948.293L896.68,948.291C895.697,935.569 896.446,922.976 898.569,911.173C891.637,911.941 880.319,910.828 864.61,907.827C850.449,865.978 861.535,821.023 892.454,784.115C880.045,794.017 862.553,789.745 839.976,771.298C851.306,771.576 861.934,758.199 871.861,731.168C884.754,695.451 904.242,669.854 930.322,654.376C915.085,651.051 899.271,644.397 883.2,633.631C888.7,628.488 894.169,620.764 899.607,610.461C860.358,610.267 833.35,596.734 818.585,569.86C814.705,554.174 823.861,542.058 831.853,536.251C811.663,520.233 798.668,495.814 792.869,462.994C811.229,444.606 839.618,445.311 864.334,443.825C859.486,437.856 857.806,427.015 859.294,411.302C899.64,407.883 924.589,417.827 945.913,436.449C945.913,436.449 947.895,428.047 951.857,411.24C1043.3,422.113 1076.76,476.639 1073.73,531.569C1094.66,524.899 1108.8,517.126 1116.14,508.247C1153.3,443.879 1202.24,398.667 1262.96,372.62C1280.96,376.206 1284.81,388.126 1285.45,404.83C1240.2,418.867 1201.8,445.855 1168.43,486.382C1171.94,469.631 1186.67,451.652 1212.63,432.442C1190.73,446.581 1175.71,460.631 1167.55,474.59C1155.46,495.284 1162.86,512.723 1172,533.629C1203.38,605.445 1262.63,584.965 1287.83,626.374C1262.61,577.316 1200.17,598.386 1175.95,516.477C1180.27,521.04 1184.89,525.289 1189.84,529.222C1236.96,566.712 1314.76,561.114 1330.36,634.09C1334.81,654.884 1332,678.956 1321.94,706.306C1318.68,664.46 1270.41,658.188 1239.05,643.923C1171.71,613.297 1141.7,569.417 1149.03,512.282C1137.63,528.941 1126.84,547.392 1116.58,567.665C1113.2,575.173 1111.79,581.409 1111.88,586.672C1109.09,578.554 1109.04,568.038 1111.74,555.121C1098.67,581.914 1104.74,600.373 1129.95,610.498L1129.96,610.498C1137.95,614.617 1147.48,617.732 1156.12,621.398L1156.38,621.46L1156.28,621.464C1212.72,645.438 1259.18,692.606 1274.74,759.482ZM1004.4,700.225C992.156,732.329 958.107,749.281 902.25,751.077C921.274,697.189 956.764,663.212 1008.72,649.149C1006.81,668.458 986.45,693.192 947.65,723.342C971.617,709.182 990.533,701.474 1004.4,700.221L1004.4,700.225ZM1047.98,604.151L1048.12,604.138L1048.05,604.103C1065.55,601.609 1078.27,590.404 1086.22,570.487L1086.22,570.488C1090.17,560.573 1094.33,550.992 1098.68,541.737C1091.43,543.932 1082.64,544.902 1072.33,544.645C1068.98,565.763 1060.46,586.419 1047.98,604.151ZM1012.8,474.999C1030.03,484.136 1041.56,494.828 1047.4,507.074C1043.73,469.826 1018.23,445.038 970.886,432.71C969.033,478.828 985.353,504.756 1019.85,510.495C1020.47,496.685 1018.12,484.854 1012.8,474.999ZM1053.89,553.316C1024.36,532.778 1001.44,534.518 985.137,558.536C1013.15,575.15 1036.07,573.41 1053.89,553.316ZM975.607,583.566C941.678,578.138 925.769,588.138 927.882,613.564C950.251,619.851 966.16,609.853 975.607,583.566ZM928.148,567.082C898.863,558.198 873.999,561.97 853.558,578.404C878.646,603.533 903.509,599.759 928.148,567.082ZM875.354,507.68C847.151,521.12 827.758,512.826 812.823,471.335C850.467,469.117 873.586,472.45 886.527,492.795C870.202,496.622 859.126,497.738 853.3,496.145C861.101,503.685 868.453,507.531 875.354,507.68ZM945.07,516.094C954.082,525.657 963.273,532.447 972.642,536.458C932.447,543.393 908.738,528.866 901.515,492.874C928.956,478.128 955.941,483.815 982.469,509.937C967.734,516.117 955.267,518.17 945.07,516.094ZM929.254,468.547C903.154,465.525 887.884,450.573 883.445,423.688C922.042,433.208 937.312,448.16 929.254,468.547ZM989.65,943.595C989.019,954.247 989.425,962.449 990.867,968.2C996.774,966.493 1001.62,964.4 1005.42,961.92C1010.58,994.981 997.503,1021.51 966.189,1041.5C955.791,1005.02 963.613,972.385 989.65,943.595ZM1085,1004.56C1080.34,990.239 1081.75,973.607 1089.23,954.658C1045.95,989.411 1035.56,1029.9 1058.04,1076.13C1103.99,1048.17 1124.71,1012.92 1120.18,970.388C1096.73,993.167 1085,1004.56 1085,1004.56ZM1157.6,882.501C1135.59,935.088 1140.33,970.246 1171.82,987.978C1195.24,969.073 1199.61,933.924 1184.95,882.528C1177.96,902.326 1172.26,914.618 1167.86,919.404C1160.42,905.724 1157,893.424 1157.6,882.501ZM1137.48,631.066C1196.27,663.131 1223.45,696.783 1219.01,732.02C1166.31,748.608 1139.13,714.955 1137.48,631.066ZM1154,754.652C1174.38,786.371 1170.81,817.002 1143.29,846.54C1106.17,814.244 1095.71,774.1 1111.91,726.107C1133.36,742.778 1144.31,761.409 1144.76,782.004C1151.93,773.104 1155.01,763.987 1154,754.652ZM1044.17,779.792C1040.8,760.961 1034.44,748.807 1025.11,743.329C989.881,767.299 987.232,801.925 1017.16,847.208C1067.68,827.322 1089.24,795.063 1081.82,750.435C1068.83,762.698 1056.28,772.482 1044.17,779.792ZM932.425,814.007C930.743,801.736 932.058,791.14 936.373,782.219C893.112,807.929 873.813,842.477 878.479,885.863C946.992,859.458 979.636,825.969 976.414,785.397C964.261,795.64 949.599,805.177 932.425,814.007ZM913.137,956.393C914.064,965.914 916.357,972.721 920.016,976.813C970.846,938.978 1018.42,919.594 991.981,840.875C993.288,856.606 980.834,882.215 954.622,917.702C961.556,900.866 963.436,880.311 960.258,856.035C926.546,891.876 910.841,925.329 913.137,956.393ZM1064.09,896.73C1072.13,871.444 1071.87,851.407 1063.3,836.619C1020.28,865.672 1014.32,903.798 1045.44,950.999C1095.63,925.248 1116.75,889.806 1108.81,844.669C1096.23,872.917 1081.32,890.271 1064.09,896.73ZM1192.48,761.473C1225.62,798.042 1233.34,829.207 1215.64,854.969C1185.87,831.833 1178.15,800.667 1192.48,761.473ZM1080.17,683.115C1081.48,659.524 1074.44,640.173 1059.05,625.063C1022.42,654.389 1017.59,692.401 1044.57,739.099C1106.94,715.698 1129.82,682.573 1113.23,639.725C1104.01,664.825 1092.99,679.29 1080.17,683.115Z" style="fill:rgb(0,166,80);"/>
            <path d="M1216.66,1157.75C1222.75,1132.95 1227.38,1107.34 1230.89,1081.49C1236.83,1098.58 1242.57,1115.98 1248.07,1133.16C1260.57,1079.05 1257.22,1097.49 1240.98,1033.71C1194.47,1061.77 1183.85,1140.3 1216.66,1157.75ZM1217.51,1179.75C1216.3,1181.8 1214.03,1183.83 1210.7,1185.84C1175.63,1206.32 1141.19,1210.66 1107.36,1198.88C1148.67,1194.7 1177.07,1183.55 1192.55,1165.43C1172.73,1144.61 1174.65,1109.17 1184.59,1088.06C1189.66,1075.94 1199.8,1060.42 1206.3,1051.84C1226.79,1023.44 1243.73,1010.42 1252.53,977.83C1256.17,962.986 1257.23,950.839 1259.45,935.199C1261.56,919.604 1263.58,904.071 1266.93,889.189C1263.27,915.476 1262.06,947.317 1262.9,984.519C1262.65,990.985 1262.72,997.203 1263.2,1003.31L1263.16,1003.4C1263.25,1004.76 1263.41,1006.05 1263.54,1007.43C1273.94,987.581 1283.57,967.25 1292.55,946.703C1302.18,925.356 1309.93,909.786 1311.93,881.369C1313.8,852.078 1309.76,813.01 1310.56,780.056C1313.1,819.206 1321.49,856.548 1325.11,892.369C1333.46,874.555 1335.46,854.449 1344.21,836.121C1354.32,814.404 1356.81,804.674 1354.64,775.438C1351.82,738.184 1331.9,681.831 1340.1,649.345C1342.74,668.779 1347.18,690.71 1353.08,714.876C1353.82,718.382 1354.77,722.189 1355.96,726.522C1360.66,744.933 1364.96,756.765 1369.07,769.615C1373.82,735.246 1380.42,715.362 1379.4,681.008C1380.71,653.881 1379.57,628.592 1376.02,605.066C1377.79,612.012 1379.4,618.678 1380.85,624.856C1386.05,647.163 1388.68,678.75 1394.46,696.577C1394.93,693.461 1394.86,694.742 1395.35,689.411C1395.52,681.99 1395.68,674.571 1395.68,667.071C1396.81,634.884 1401.29,609.703 1394.44,574.536C1389.96,552.179 1382.94,530.406 1376.69,507.992C1369.58,484.452 1367.09,463.776 1364.43,442.31C1369.84,465.223 1392.07,538.006 1405.75,558.979C1400.16,548.851 1403.41,482.026 1399.78,459.476C1399.29,456.595 1398.75,453.697 1398.12,450.962C1397.05,438.476 1395.66,426.444 1393.9,414.844C1407.32,448.969 1424.16,479.593 1443.55,510.749C1465.49,457.006 1451.7,344.762 1454.02,284.576C1464.4,309.006 1467.45,376.175 1472.62,406.365C1479.96,450.592 1501.4,489.04 1508.89,532.531C1518.83,524.412 1525.34,509.955 1529.45,492.198C1534.96,472.797 1539.06,454.023 1541.55,435.679C1538.85,474.695 1533.7,518.703 1535.67,548.45C1536.67,561.402 1538.59,573.693 1538.29,585.505C1537.8,600.469 1534.41,609.254 1535.61,622.204C1558.19,591.476 1566.23,537.532 1584.13,506.338C1584.05,507.112 1584.01,507.905 1583.98,508.596C1571.77,539.021 1560.28,580.636 1549.24,633.116C1549.44,632.81 1549.72,632.541 1549.88,632.213C1542.16,662.904 1545.99,691.63 1536.01,722.84C1534.54,728.001 1532.95,733.408 1531.52,738.589C1554.91,714.638 1580.8,660.901 1599.11,631.733C1589.12,675.706 1565.35,702.406 1546.01,744.044C1529.46,776.805 1533,837.623 1505.53,858.866C1522.78,851.582 1582.34,779.425 1601.56,761.241C1587.25,791.248 1553.57,823.649 1533.17,854.431C1510.92,886.534 1506.88,917.907 1480.51,950.332C1524.9,935.02 1557.96,875.15 1585.6,846.998C1581.42,866.34 1522.7,937.795 1509.22,955.84C1492.77,977.096 1486.61,989.901 1476.21,1009.45C1466.26,1022.12 1456.03,1034.96 1445.18,1047.4C1430.79,1059.12 1440.54,1047.26 1430.39,1061.16C1446.23,1054.71 1459.61,1047.86 1471.28,1040.69C1470.48,1041.82 1469.6,1042.91 1468.72,1044C1504.55,1022.48 1532.63,999.606 1552.86,975.331C1551.9,976.687 1550.89,978.02 1549.89,979.355C1525.33,1009.62 1499.64,1032.34 1464.9,1055.92C1377.03,1107.87 1381.3,1175.02 1256.18,1184.45C1251.69,1184.59 1247.69,1184.76 1244.1,1184.83C1233.77,1183.65 1224.91,1181.96 1217.51,1179.75ZM1241.16,1170.63C1268.47,1179.3 1325.35,1158.74 1347.46,1144.71C1362.19,1135.18 1374.94,1116.07 1388.35,1100.52C1391.96,1095.9 1395.65,1091.11 1399.22,1086.27C1368.79,1091.58 1343.24,1094.3 1312.42,1110.36C1287.2,1121.86 1263.2,1137.2 1254.79,1150.63C1292.08,1144.72 1301.87,1139.47 1332.64,1129.56C1301.97,1158.67 1285.97,1151.37 1241.16,1170.63ZM1321.8,1065.08C1348.87,1028.03 1331.5,979.51 1313.34,943.885C1297.7,966.552 1247.98,1045.14 1299.6,1083.93C1317.69,1067.13 1301.41,1026.94 1310.22,1005.2C1314.65,1025.3 1318.39,1045.27 1321.8,1065.08ZM1349.61,1068.93C1377.38,1072.77 1418.78,1049 1436.38,1031.65C1454.58,1012.26 1461.64,995.642 1477.16,973.425C1388.24,977.324 1345.69,1036.1 1348.5,1050.25C1382.79,1042.17 1396.22,1030.28 1421.31,1015.17C1411.04,1036 1369.17,1054.46 1349.61,1068.93ZM1379.09,958.262C1397.96,912.444 1384.84,890.224 1363.64,836.084C1358.95,843.218 1362.19,837.811 1358.28,846.438C1335.18,894.653 1325.88,930.852 1359.85,986.262C1363.49,980.441 1363.14,983.211 1364.47,974.027C1366.96,956.393 1355.47,921.286 1364.13,892.981C1369.29,914.76 1374.46,936.537 1379.09,958.262ZM1409.89,970.672C1454.84,970.025 1496.79,910.95 1501.4,880.669C1464.39,887.324 1401.35,919.369 1402.06,956.51C1438.31,944.62 1446.59,928.188 1469.45,911.582C1451.9,947.507 1420.71,953.963 1409.89,970.672ZM1414.07,857.069C1429.83,818.447 1425.98,784.844 1392.76,734.97C1374.09,764.771 1377.91,854.913 1401.97,874.669C1400.73,853.996 1395.75,821.363 1401.43,802.855C1405.85,821.025 1410.06,839.197 1414.07,857.069ZM1439.38,884.225C1470.5,872.974 1490.35,861.387 1504.73,836.582C1513.41,821.366 1521.12,788.441 1519.86,771.405C1498.15,783.607 1473.32,792.964 1456.2,810.654C1441.17,825.813 1431.56,848.582 1432.37,864.992C1466.54,848.436 1470.83,835.635 1492.75,817.051C1485.96,832.992 1484.82,837.907 1469.55,852.542C1458.41,862.915 1445.33,872.338 1439.38,884.225ZM1442.48,750.335C1459.35,723.404 1451.08,654.599 1420.62,631.007C1414.38,626.132 1420.17,629.164 1413.21,627.083C1414.78,641.226 1412.45,644.653 1411.12,660.42C1410.28,669.842 1409.86,681.797 1410.23,691.101C1410.94,712.125 1414.7,735.955 1427.77,756.02C1426.2,741.674 1427.74,687.186 1431.74,672.724C1435.51,698.889 1439.16,724.589 1442.48,750.335ZM1469.52,776.921C1492.07,771.414 1540.8,719.806 1528.24,657.014C1506.09,670.829 1485.41,677.854 1473.05,702.226C1461.61,723.801 1459.75,737.889 1459.13,759.988C1482.64,744.409 1497.75,720.976 1510.21,701.32C1501.14,744.526 1483.02,747.635 1469.52,776.921ZM1454.59,615.875C1458.79,600.292 1458.25,580.567 1453.05,559.174C1447.44,535.859 1431.13,515.226 1418.33,492.861C1410.26,517.803 1414.82,578.204 1440.97,613.986C1444.47,595.426 1425.55,568.549 1431.66,547.615C1438.85,571.297 1448.53,591.021 1454.59,615.875ZM1477.91,664.969C1501.07,652.87 1515.92,633.16 1520.49,612.286C1524.6,593.412 1525.84,567.26 1520.31,546.624C1488.27,574.146 1463.51,605.839 1466.52,641.161C1492.03,622.406 1491.39,615.198 1507.88,594.368C1510.63,619.532 1479.24,641.497 1477.91,664.969ZM1481.46,562.308C1504.77,531.53 1484.75,503.104 1472.13,460.147C1451,483.48 1457.82,535.861 1468.08,567.224C1476.32,552.705 1472.13,539.205 1475.97,523.343C1482.06,537.669 1478.56,549.138 1481.46,562.308Z" style="fill:rgb(210,169,7);"/>
        </g>
    </g>
</svg>
