<?xml version="1.0" encoding="UTF-8" standalone="no"?>
<!DOCTYPE svg PUBLIC "-//W3C//DTD SVG 1.1//EN" "http://www.w3.org/Graphics/SVG/1.1/DTD/svg11.dtd">
<svg width="100%" height="100%" viewBox="0 0 490 489" version="1.1" xmlns="http://www.w3.org/2000/svg" xmlns:xlink="http://www.w3.org/1999/xlink" xml:space="preserve" xmlns:serif="http://www.serif.com/" style="fill-rule:evenodd;clip-rule:evenodd;">
    <g transform="matrix(1,0,0,1,-1001.91,-2536.44)">
        <g id="Ebene-1" serif:id="Ebene 1" transform="matrix(4.16667,0,0,4.16667,0,0)">
            <g>
                <clipPath id="_clip1">
                    <rect x="240.807" y="609.504" width="117.014" height="115.994" clip-rule="nonzero"/>
                </clipPath>
                <g clip-path="url(#_clip1)">
                    <g transform="matrix(-1,0,0,1,299.147,725.073)">
                        <ellipse cx="0" cy="-57.649" rx="57.659" ry="57.649" style="fill:none;stroke:rgb(35,31,32);stroke-width:0.5px;"/>
                    </g>
                    <g transform="matrix(-1,0,0,1,299.147,722.19)">
                        <path d="M0,-109.532C30.251,-109.532 54.776,-85.012 54.776,-54.766C54.776,-24.52 30.251,0 0,0C-30.252,0 -54.776,-24.52 -54.776,-54.766C-54.776,-85.012 -30.252,-109.532 0,-109.532" style="fill:rgb(0,174,239);fill-rule:nonzero;"/>
                    </g>
                    <g transform="matrix(1,0,0,1,299.147,690.025)">
                        <path d="M0,23.333C6.445,23.333 11.669,18.11 11.669,11.667C11.669,5.223 6.445,0 0,0C-6.444,0 -11.668,5.223 -11.668,11.667C-11.668,18.11 -6.444,23.333 0,23.333" style="fill:white;fill-rule:nonzero;"/>
                    </g>
                    <g transform="matrix(1,0,0,1,299.147,685.942)">
                        <path d="M0,-66.976C-7.421,-66.976 -13.436,-60.961 -13.436,-53.542C-13.436,-52.918 -13.39,-52.305 -13.308,-51.703L-6.102,-5.563C-5.816,-2.443 -3.194,0 0,0C3.195,0 5.817,-2.443 6.102,-5.563L13.308,-51.703C13.391,-52.305 13.437,-52.918 13.437,-53.542C13.437,-60.961 7.421,-66.976 0,-66.976" style="fill:white;fill-rule:nonzero;"/>
                    </g>
                </g>
            </g>
        </g>
    </g>
</svg>
