<?xml version="1.0" encoding="UTF-8" standalone="no"?>
<!DOCTYPE svg PUBLIC "-//W3C//DTD SVG 1.1//EN" "http://www.w3.org/Graphics/SVG/1.1/DTD/svg11.dtd">
<svg width="100%" height="100%" viewBox="0 0 39 33" version="1.1" xmlns="http://www.w3.org/2000/svg" xmlns:xlink="http://www.w3.org/1999/xlink" xml:space="preserve" xmlns:serif="http://www.serif.com/" style="fill-rule:evenodd;clip-rule:evenodd;stroke-linejoin:round;stroke-miterlimit:2;">
    <g transform="matrix(1,0,0,1,-53,0)">
        <g transform="matrix(0.22807,0,0,1,46.385965,0)">
            <rect x="29" y="0" width="171" height="33" style="fill:rgb(217,38,165);"/>
        </g>
        <path d="M74.959,22.6C74.959,21.934 75.857,22.021 76.755,21.731C77.972,21.325 77.972,20.311 77.972,19.211L77.972,8.577C77.972,7.534 77.799,7.273 76.147,7.273C74.09,7.273 73.336,7.36 72.959,8.461C72.467,9.851 72.727,10.315 72.003,10.315C71.569,10.315 71.423,10.055 71.423,9.562C71.423,9.098 71.51,8.519 71.568,6.607C71.597,6.027 71.626,5.68 72.089,5.68L86.895,5.68C87.33,5.68 87.416,5.999 87.416,6.607C87.416,8.345 87.532,9.098 87.532,9.562C87.532,10.055 87.416,10.315 86.953,10.315C86.229,10.315 86.489,9.881 85.996,8.461C85.619,7.36 84.866,7.273 82.809,7.273C81.216,7.273 81.041,7.534 81.041,8.577L81.041,19.211C81.041,20.311 81.041,21.354 82.258,21.731C83.156,22.021 84.026,21.934 84.055,22.6C84.055,22.919 83.851,23.064 83.417,23.064L75.594,23.064C75.162,23.064 74.959,22.919 74.959,22.6Z" style="fill:white;"/>
        <path d="M57.432,23.064C56.794,23.064 56.592,22.658 56.476,21.934L55.925,18.08C55.809,17.24 55.809,16.631 56.476,16.631C57.055,16.631 57.142,17.065 57.287,17.935C57.721,20.426 59.634,22.396 63.081,22.396C65.573,22.396 67.717,21.15 67.717,18.803C67.717,16.486 65.689,15.645 62.327,14.255C58.59,12.719 56.214,11.56 56.214,8.141C56.215,4.811 58.562,2 62.85,2C65.11,2 66.182,2.724 68.123,2.84C68.644,2.898 68.789,3.187 68.818,3.506C68.847,3.883 69.224,7.939 69.224,8.287C69.224,8.75 69.051,8.983 68.587,8.983C67.92,8.983 67.834,8.375 67.718,7.621C67.341,4.927 65.371,3.477 62.792,3.477C60.329,3.477 58.765,4.81 58.765,6.577C58.765,8.228 60.127,9.359 63.198,10.605C67.11,12.169 70.239,13.009 70.239,17.211C70.239,21.47 66.965,24.078 62.967,24.078C60.706,24.078 59.141,23.064 57.432,23.064Z" style="fill:white;"/>
        <g transform="matrix(0.178936,0,0,1,54.642129,0)">
            <path d="M2,29.989L2,28.453C2,28.192 2.174,28.019 2.434,28.019L197.167,28.019C197.427,28.019 197.601,28.192 197.601,28.453L197.601,29.989C197.601,30.249 197.427,30.424 197.167,30.424L2.434,30.424C2.174,30.424 2,30.249 2,29.989Z" style="fill:white;"/>
        </g>
    </g>
</svg>
