<?xml version="1.0" encoding="UTF-8" standalone="no"?>
<!DOCTYPE svg PUBLIC "-//W3C//DTD SVG 1.1//EN" "http://www.w3.org/Graphics/SVG/1.1/DTD/svg11.dtd">
<svg width="100%" height="100%" viewBox="0 0 81 81" version="1.1" xmlns="http://www.w3.org/2000/svg" xmlns:xlink="http://www.w3.org/1999/xlink" xml:space="preserve" xmlns:serif="http://www.serif.com/" style="fill-rule:evenodd;clip-rule:evenodd;stroke-linejoin:round;stroke-miterlimit:2;">
    <g transform="matrix(1,0,0,1,-96.999998,0.000001)">
        <g transform="matrix(1.25,0,0,-1.25,-236.65597,302.11004)">
            <g id="path134" transform="matrix(0.264896,0,0,1.30813,216.77334,-54.558674)">
                <rect x="189.325" y="177.064" width="244.624" height="49.402" style="fill:rgb(0,91,146);fill-rule:nonzero;"/>
            </g>
            <g id="path252" transform="matrix(1.30813,0,0,1.30813,-58.33665,-54.558674)">
                <path d="M265.265,200.485L265.482,202.039C268.205,202.117 270.947,205.343 270.947,209.814C270.947,214.095 268.391,215.336 265.671,215.336L264.202,215.336L264.202,192.116C264.202,191.17 264.232,190.858 264.68,190.699L267.052,189.873L267.052,189.128L256.645,189.128L256.645,189.873L258.703,190.699C259.154,190.905 259.188,191.17 259.188,192.116L259.188,214.28C259.188,215.217 258.82,215.493 258.378,215.695L256.645,216.515L256.645,217.262L267.532,217.262C270.762,217.262 275.523,216.634 275.523,210.077C275.523,202.892 270.096,200.372 265.265,200.485" style="fill:rgb(246,245,245);fill-rule:nonzero;"/>
            </g>
            <g id="path256" transform="matrix(1.30813,0,0,1.30813,-58.33665,-54.558674)">
                <path d="M289.579,207.093L288.746,203.525L288.04,203.672C287.749,204.967 286.467,205.84 285.217,205.84C284.736,205.84 283.996,205.609 283.52,205.212L283.52,191.873C283.52,191.015 283.548,190.738 283.972,190.582L286.18,189.792L286.18,189.128L276.615,189.128L276.615,189.792L278.182,190.582C278.568,190.779 278.629,191.015 278.629,191.873L278.629,204.549L278.432,206.193C278.337,207.019 278.337,207.334 277.855,207.49L276.386,207.341L276.629,208.742L282.625,209.766L282.845,209.56L283.07,207.019L283.298,207.019C284.576,208.463 286.014,209.964 287.832,209.964C288.992,209.964 289.762,209.289 289.762,208.431C289.762,208.035 289.668,207.568 289.579,207.093" style="fill:rgb(246,245,245);fill-rule:nonzero;"/>
            </g>
        </g>
    </g>
</svg>
