<?xml version="1.0" encoding="UTF-8" standalone="no"?>
<!DOCTYPE svg PUBLIC "-//W3C//DTD SVG 1.1//EN" "http://www.w3.org/Graphics/SVG/1.1/DTD/svg11.dtd">
<svg width="100%" height="100%" viewBox="0 0 800 800" version="1.1" xmlns="http://www.w3.org/2000/svg" xmlns:xlink="http://www.w3.org/1999/xlink" xml:space="preserve" xmlns:serif="http://www.serif.com/" style="fill-rule:evenodd;clip-rule:evenodd;stroke-linejoin:round;stroke-miterlimit:2;">
    <g id="Path_3" transform="matrix(12.955256,0,0,12.955256,-3481.452932,-2714.864537)">
        <path d="M328.667,219.141L320.888,211.303C319.77,210.18 318.247,209.551 316.662,209.557C315.078,209.551 313.555,210.18 312.437,211.302L274.254,249.476C274.066,249.665 273.931,249.901 273.863,250.159L268.848,269.43C268.816,269.553 268.8,269.68 268.8,269.808C268.8,270.631 269.477,271.308 270.3,271.308C270.3,271.308 270.3,271.308 270.3,271.308C270.431,271.308 270.562,271.291 270.688,271.257L289.842,266.125C290.097,266.057 290.329,265.923 290.515,265.736L328.663,227.589C330.973,225.269 330.976,221.463 328.668,219.141L328.667,219.141ZM307.4,220.574L312.328,225.502L282.362,255.468L277.431,250.537L307.4,220.574ZM275.935,266.744L273.322,264.131L276.102,253.45L286.552,263.899L275.935,266.744ZM289.449,262.555L284.483,257.589L314.449,227.623L319.415,232.589L289.449,262.555ZM326.537,225.467L321.537,230.467L309.523,218.452L314.554,213.422C315.11,212.865 315.867,212.553 316.654,212.556C317.441,212.552 318.197,212.863 318.754,213.419L326.534,221.257C327.682,222.415 327.682,224.308 326.534,225.466L326.537,225.467Z" style="fill-rule:nonzero;"/>
    </g>
</svg>
