<?xml version="1.0" encoding="UTF-8" standalone="no"?>
<!DOCTYPE svg PUBLIC "-//W3C//DTD SVG 1.1//EN" "http://www.w3.org/Graphics/SVG/1.1/DTD/svg11.dtd">
<svg width="100%" height="100%" viewBox="0 0 465 376" version="1.1" xmlns="http://www.w3.org/2000/svg" xmlns:xlink="http://www.w3.org/1999/xlink" xml:space="preserve" xmlns:serif="http://www.serif.com/" style="fill-rule:evenodd;clip-rule:evenodd;stroke-linejoin:round;stroke-miterlimit:2;">
    <g transform="matrix(1,0,0,1,-279.523,-172.178)">
        <g>
            <path d="M511.451,377.79L550.902,438.08L471.737,438.08L511.451,377.79Z" style="fill:rgb(3,4,4);fill-rule:nonzero;"/>
            <path d="M400.888,257.388L426.005,294.083L324.753,294.083L324.753,333.131L452.593,333.131L462.257,347.309L446.706,369.777L324.753,369.777L324.753,438.063L426.005,438.063L488.159,347.456L426.937,257.438L400.888,257.388ZM474.03,257.438L512.49,316.844L551.245,257.438L474.03,257.438ZM596.965,257.438L535.793,346.916L597.897,438.063L699.149,438.063L699.149,369.777L577.441,369.777L561.743,346.818L571.113,333.131L699.149,333.131L699.149,294.083L597.947,294.083L623.014,257.388L596.965,257.438Z" style="fill:rgb(3,4,4);fill-rule:nonzero;"/>
            <path d="M318.089,498.783L318.089,493.155L279.523,493.155L279.523,546.9L285.566,546.9L285.566,523.511L314.63,523.511L314.63,517.976L285.566,517.976L285.566,498.783L318.089,498.783Z" style="fill:rgb(3,4,4);fill-rule:nonzero;"/>
            <path d="M383.044,493.155L383.044,524.387C383.044,536.152 376.77,542.149 366.851,542.149C356.564,542.149 350.428,535.598 350.428,524.019L350.428,493.155L344.385,493.155L344.385,524.387C344.385,539.612 353.426,547.73 366.713,547.73C380.137,547.73 389.133,539.612 389.133,523.974L389.133,493.155L383.044,493.155Z" style="fill:rgb(3,4,4);fill-rule:nonzero;"/>
            <path d="M441.955,519.406L461.838,493.155L454.779,493.155L438.402,515.114L421.933,493.155L414.782,493.155L434.665,519.497L413.999,546.9L421.01,546.9L438.172,523.789L455.379,546.9L462.575,546.9L441.955,519.406Z" style="fill:rgb(3,4,4);fill-rule:nonzero;"/>
            <path d="M527.669,498.783L527.669,493.155L489.102,493.155L489.102,546.9L495.145,546.9L495.145,523.511L524.255,523.511L524.255,517.976L495.145,517.976L495.145,498.783L527.669,498.783Z" style="fill:rgb(3,4,4);fill-rule:nonzero;"/>
            <path d="M578.737,542.195C566.465,542.195 557.562,532.23 557.562,519.959C557.562,507.688 566.327,497.861 578.598,497.861C590.87,497.861 599.773,507.826 599.773,520.097C599.773,532.368 591.054,542.195 578.737,542.195ZM578.737,492.279C562.406,492.279 551.288,505.242 551.288,520.097C551.288,534.998 562.267,547.822 578.598,547.822C594.929,547.822 606.093,534.859 606.093,519.959C606.093,505.058 595.114,492.279 578.737,492.279Z" style="fill:rgb(3,4,4);fill-rule:nonzero;"/>
            <path d="M626.76,493.155L626.76,498.783L644.798,498.783L644.798,546.9L650.934,546.9L650.934,498.783L668.971,498.783L668.971,493.155L626.76,493.155Z" style="fill:rgb(3,4,4);fill-rule:nonzero;"/>
            <path d="M717.088,542.195C704.816,542.195 695.913,532.23 695.913,519.959C695.913,507.688 704.678,497.861 716.949,497.861C729.22,497.861 738.124,507.826 738.124,520.097C738.124,532.368 729.405,542.195 717.088,542.195ZM717.088,492.279C700.756,492.279 689.638,505.242 689.638,520.097C689.638,534.998 700.618,547.822 716.949,547.822C733.28,547.822 744.398,534.859 744.398,519.959C744.398,505.058 733.464,492.279 717.088,492.279Z" style="fill:rgb(3,4,4);fill-rule:nonzero;"/>
            <path d="M734.666,452.828L289.334,452.828L289.334,263.913C289.334,253.317 297.968,244.683 308.564,244.683L361.937,244.683C379.843,244.683 392.548,228.887 403.684,211.717C413.495,196.461 422.767,182.039 439.691,182.039L584.259,182.039C601.233,182.039 610.505,196.51 620.365,211.816C631.452,228.887 644.108,244.683 662.063,244.683L715.387,244.683C726.032,244.683 734.666,253.317 734.666,263.913L734.666,452.828ZM715.387,234.823L662.063,234.823C648.818,234.823 638.172,221.234 628.656,206.517C618.304,190.427 606.581,172.178 584.259,172.178L439.691,172.178C417.42,172.178 405.695,190.378 395.344,206.468C385.828,221.234 375.133,234.823 361.937,234.823L308.564,234.823C292.572,234.823 279.523,247.872 279.523,263.913L279.523,462.64L744.477,462.64L744.477,263.913C744.477,247.872 731.428,234.823 715.387,234.823Z" style="fill:rgb(3,4,4);fill-rule:nonzero;"/>
            <path d="M609.057,229.898L416.218,229.898C421.172,223.816 424.901,217.978 427.599,213.857C429.499,210.931 432.939,205.593 435.946,201.619C438.298,198.511 441.959,196.687 445.858,196.689L579.467,196.735C583.391,196.736 587.074,198.584 589.42,201.731C592.404,205.735 595.843,211.061 597.53,213.71C600.227,217.929 604.005,223.766 609.057,229.898Z" style="fill:rgb(3,4,4);fill-rule:nonzero;"/>
        </g>
    </g>
</svg>
