<?xml version="1.0" encoding="UTF-8" standalone="no"?>
<!DOCTYPE svg PUBLIC "-//W3C//DTD SVG 1.1//EN" "http://www.w3.org/Graphics/SVG/1.1/DTD/svg11.dtd">
<svg width="100%" height="100%" viewBox="0 0 177 177" version="1.1" xmlns="http://www.w3.org/2000/svg" xmlns:xlink="http://www.w3.org/1999/xlink" xml:space="preserve" xmlns:serif="http://www.serif.com/" style="fill-rule:evenodd;clip-rule:evenodd;stroke-linejoin:round;stroke-miterlimit:2;">
    <g transform="matrix(1,0,0,1,-114.95,-0)">
        <g transform="matrix(1.149351,0,0,1.149351,-102.277273,-26.435065)">
            <circle cx="266" cy="100" r="77" style="fill:rgb(0,85,153);"/>
        </g>
        <g id="G" transform="matrix(1,0,0,1,127.125,0)">
            <path d="M105.75,49L105.75,24.25L68.1,24.25C68.1,24.25 16.9,22.74 16.9,86C16.9,149.26 64.59,149.25 72.9,149.25L121.75,149.25L121.75,78.25L71.75,78.25L71.75,101.25L96.75,101.25L96.75,124.25L70.75,124.25C70.75,124.25 59.46,123.96 53.49,115.78C53.49,115.78 47.75,109.05 47.75,94.35C47.75,79.65 48,75.41 48,75.41C48,75.41 46.13,53.11 69.5,49.25L105.75,49Z" style="fill:white;fill-rule:nonzero;"/>
        </g>
    </g>
</svg>
