<?xml version="1.0" standalone="no"?>
<!DOCTYPE svg PUBLIC "-//W3C//DTD SVG 20010904//EN"
 "http://www.w3.org/TR/2001/REC-SVG-20010904/DTD/svg10.dtd">
<svg version="1.0" xmlns="http://www.w3.org/2000/svg"
 width="700.000000pt" height="700.000000pt" viewBox="0 0 700.000000 700.000000"
 preserveAspectRatio="xMidYMid meet">
<metadata>
Created by potrace 1.14, written by Peter Selinger 2001-2017
</metadata>
<g transform="translate(0.000000,700.000000) scale(0.100000,-0.100000)"
fill="#000000" stroke="none">
<path d="M3225 6524 c-353 -41 -600 -100 -880 -210 -318 -126 -609 -303 -879
-533 l-89 -76 517 -3 516 -2 0 -185 0 -185 -235 0 -235 0 -2 -1697 -3 -1698
-23 -80 c-37 -133 -91 -234 -170 -316 -101 -107 -164 -141 -382 -206 -30 -9
226 -222 431 -358 62 -41 116 -72 119 -68 4 5 79 98 167 208 396 493 790 934
1284 1437 l184 187 -28 78 c-149 412 -156 887 -18 1169 51 101 102 160 199
225 131 87 401 205 529 231 45 9 57 9 69 -4 14 -13 10 -25 -35 -110 -87 -162
-119 -281 -128 -473 -6 -120 11 -467 25 -519 l8 -28 116 100 c434 372 907 711
1283 920 239 133 631 306 745 328 16 4 30 13 30 20 0 29 -165 338 -248 465
-508 772 -1317 1268 -2242 1374 -122 13 -530 19 -625 9z"/>
<path d="M986 5257 c-300 -406 -504 -944 -556 -1466 -13 -133 -13 -449 0 -582
52 -517 243 -1028 542 -1446 l58 -81 78 4 c182 12 300 58 346 136 13 24 33 68
43 98 17 52 18 138 21 1733 l3 1677 -241 0 -240 0 -54 -73z"/>
<path d="M6235 4506 c-377 -183 -945 -560 -1370 -910 -194 -159 -655 -557
-655 -564 0 -4 18 -74 39 -157 174 -660 455 -1128 749 -1244 81 -32 169 -43
253 -31 88 13 144 36 197 84 38 35 72 41 72 13 0 -23 -127 -134 -182 -160 -87
-41 -147 -50 -293 -44 -381 16 -694 155 -971 432 -160 160 -249 282 -399 548
l-27 48 -61 -57 c-191 -178 -686 -666 -856 -844 -275 -289 -615 -668 -683
-763 l-20 -28 124 -58 c316 -150 650 -246 998 -285 177 -21 523 -21 700 -1
1054 121 1959 753 2420 1690 205 416 294 776 307 1235 10 385 -31 678 -148
1038 -22 67 -45 122 -52 122 -7 0 -70 -29 -142 -64z"/>
</g>
</svg>
