<?xml version="1.0" encoding="UTF-8" standalone="no"?>
<!DOCTYPE svg PUBLIC "-//W3C//DTD SVG 1.1//EN" "http://www.w3.org/Graphics/SVG/1.1/DTD/svg11.dtd">
<svg width="100%" height="100%" viewBox="0 0 224 224" version="1.1" xmlns="http://www.w3.org/2000/svg" xmlns:xlink="http://www.w3.org/1999/xlink" xml:space="preserve" xmlns:serif="http://www.serif.com/" style="fill-rule:evenodd;clip-rule:evenodd;stroke-linejoin:round;stroke-miterlimit:2;">
    <g transform="matrix(1,0,0,1,-41.732061,-237.51751)">
        <g transform="matrix(1,0,0,1,-167.267939,237.51751)">
            <rect x="209" y="0" width="224" height="224" style="fill:rgb(7,178,111);"/>
        </g>
    </g>
    <g transform="matrix(1,0,0,1,-41.732061,-237.51751)">
        <g transform="matrix(1,0,0,1,29.675493,0)">
            <path d="M149.532,332.678C149.532,327.276 153.911,322.897 159.313,322.897C164.715,322.897 169.09,327.276 169.09,332.678C169.09,338.08 164.715,342.459 159.313,342.459C153.911,342.459 149.532,338.08 149.532,332.678Z" style="fill:rgb(0,57,127);"/>
            <path d="M137.025,350.451C137.025,345.049 141.404,340.67 146.806,340.67C152.208,340.67 156.583,345.049 156.583,350.451C156.583,355.852 152.208,360.232 146.806,360.232C141.404,360.232 137.025,355.852 137.025,350.451Z" style="fill:rgb(0,57,127);"/>
            <path d="M117.406,359.799C117.406,354.398 121.785,350.018 127.187,350.018C132.589,350.018 136.964,354.398 136.964,359.799C136.964,365.201 132.589,369.58 127.187,369.58C121.785,369.58 117.406,365.201 117.406,359.799Z" style="fill:rgb(0,57,127);"/>
            <path d="M95.677,360.231C95.677,354.829 100.056,350.45 105.458,350.45C110.859,350.45 115.235,354.829 115.235,360.231C115.235,365.632 110.859,370.012 105.458,370.012C100.056,370.012 95.677,365.632 95.677,360.231Z" style="fill:rgb(0,57,127);"/>
            <path d="M151.7,311.051C151.7,305.65 156.08,301.27 161.481,301.27C166.883,301.27 171.259,305.65 171.259,311.051C171.259,316.453 166.883,320.832 161.481,320.832C156.08,320.832 151.7,316.453 151.7,311.051Z" style="fill:rgb(0,57,127);"/>
            <path d="M140.822,292.245C140.822,286.843 145.201,282.464 150.603,282.464C156.005,282.464 160.381,286.843 160.381,292.245C160.381,297.647 156.005,302.026 150.603,302.026C145.201,302.026 140.822,297.647 140.822,292.245Z" style="fill:rgb(0,57,127);"/>
            <path d="M120.305,285.059C120.305,279.657 124.684,275.278 130.086,275.278C135.488,275.278 139.864,279.657 139.864,285.059C139.864,290.461 135.488,294.84 130.086,294.84C124.684,294.84 120.305,290.461 120.305,285.059Z" style="fill:rgb(0,57,127);"/>
            <path d="M98.587,284.164C98.587,278.762 102.967,274.383 108.368,274.383C113.77,274.383 118.146,278.762 118.146,284.164C118.146,289.566 113.77,293.945 108.368,293.945C102.967,293.945 98.587,289.566 98.587,284.164Z" style="fill:rgb(0,57,127);"/>
            <path d="M76.854,284.164C76.854,278.762 81.233,274.383 86.635,274.383C92.037,274.383 96.413,278.762 96.413,284.164C96.413,289.566 92.037,293.945 86.635,293.945C81.233,293.945 76.854,289.566 76.854,284.164Z" style="fill:rgb(0,57,127);"/>
            <path d="M76.854,305.897C76.854,300.495 81.233,296.116 86.635,296.116C92.037,296.116 96.413,300.495 96.413,305.897C96.413,311.299 92.037,315.678 86.635,315.678C81.233,315.678 76.854,311.299 76.854,305.897Z" style="fill:rgb(0,57,127);"/>
            <path d="M76.854,327.631C76.854,322.229 81.233,317.85 86.635,317.85C92.037,317.85 96.413,322.229 96.413,327.631C96.413,333.033 92.037,337.412 86.635,337.412C81.233,337.412 76.854,333.033 76.854,327.631Z" style="fill:rgb(0,57,127);"/>
            <path d="M76.854,349.364C76.854,343.962 81.233,339.583 86.635,339.583C92.037,339.583 96.413,343.962 96.413,349.364C96.413,354.766 92.037,359.145 86.635,359.145C81.233,359.145 76.854,354.766 76.854,349.364Z" style="fill:rgb(0,57,127);"/>
            <path d="M76.854,371.097C76.854,365.695 81.233,361.316 86.635,361.316C92.037,361.316 96.413,365.695 96.413,371.097C96.413,376.499 92.037,380.878 86.635,380.878C81.233,380.878 76.854,376.499 76.854,371.097Z" style="fill:rgb(0,57,127);"/>
            <path d="M76.854,392.83C76.854,387.428 81.233,383.049 86.635,383.049C92.037,383.049 96.413,387.428 96.413,392.83C96.413,398.232 92.037,402.611 86.635,402.611C81.233,402.611 76.854,398.232 76.854,392.83Z" style="fill:rgb(0,57,127);"/>
            <path d="M76.854,414.564C76.854,409.162 81.233,404.783 86.635,404.783C92.037,404.783 96.413,409.162 96.413,414.564C96.413,419.965 92.037,424.345 86.635,424.345C81.233,424.345 76.854,419.965 76.854,414.564Z" style="fill:rgb(0,57,127);"/>
        </g>
    </g>
</svg>
