<?xml version="1.0" encoding="iso-8859-1"?>
<!-- Uploaded to: SVG Repo, www.svgrepo.com, Generator: SVG Repo Mixer Tools -->
<svg fill="#000000" height="800px" width="800px" version="1.1" id="Layer_1" xmlns="http://www.w3.org/2000/svg" xmlns:xlink="http://www.w3.org/1999/xlink" 
	 viewBox="0 0 512 512" xml:space="preserve">
<g>
	<g>
		<path d="M403.212,72.623L321.757,2.804C319.651,0.989,316.951,0,314.182,0H139.636c-19.247,0-34.909,15.663-34.909,34.909v116.364
			c0,6.435,5.213,11.636,11.636,11.636S128,157.708,128,151.273V34.909c0-6.423,5.225-11.636,11.636-11.636h170.24l78.196,67.014
			c4.887,4.201,12.218,3.642,16.396-1.268C408.657,84.143,408.099,76.8,403.212,72.623z"/>
	</g>
</g>
<g>
	<g>
		<circle cx="81.455" cy="256" r="11.636"/>
	</g>
</g>
<g>
	<g>
		<circle cx="128" cy="256" r="11.636"/>
	</g>
</g>
<g>
	<g>
		<path d="M465.455,186.182h-58.182v-69.818c0-6.435-5.201-11.636-11.636-11.636h-69.818c-6.423,0-11.636-5.213-11.636-11.636
			V58.182c0-6.435-5.201-11.636-11.636-11.636c-6.435,0-11.636,5.201-11.636,11.636v34.909c0,19.247,15.663,34.909,34.909,34.909
			H384v69.818c0,6.435,5.201,11.636,11.636,11.636h69.818c6.423,0,11.636,5.213,11.636,11.636v69.818
			c0,6.423-5.213,11.636-11.636,11.636H46.545c-6.412,0-11.636-5.213-11.636-11.636v-69.818c0-6.423,5.225-11.636,11.636-11.636
			h302.545c6.435,0,11.636-5.201,11.636-11.636c0-6.435-5.201-11.636-11.636-11.636H46.545c-19.247,0-34.909,15.663-34.909,34.909
			v69.818c0,19.247,15.663,34.909,34.909,34.909h418.909c19.247,0,34.909-15.663,34.909-34.909v-69.818
			C500.364,201.844,484.701,186.182,465.455,186.182z"/>
	</g>
</g>
<g>
	<g>
		<path d="M116.364,349.091c-6.423,0-11.636,5.201-11.636,11.636v139.636c0,6.435,5.213,11.636,11.636,11.636
			S128,506.799,128,500.364V360.727C128,354.292,122.787,349.091,116.364,349.091z"/>
	</g>
</g>
<g>
	<g>
		<path d="M395.636,349.091c-6.435,0-11.636,5.201-11.636,11.636v139.636c0,6.435,5.201,11.636,11.636,11.636
			c6.435,0,11.636-5.201,11.636-11.636V360.727C407.273,354.292,402.071,349.091,395.636,349.091z"/>
	</g>
</g>
<g>
	<g>
		<path d="M162.909,349.091c-6.423,0-11.636,5.201-11.636,11.636v139.636c0,6.435,5.213,11.636,11.636,11.636
			s11.636-5.201,11.636-11.636V360.727C174.545,354.292,169.332,349.091,162.909,349.091z"/>
	</g>
</g>
<g>
	<g>
		<path d="M349.091,349.091c-6.435,0-11.636,5.201-11.636,11.636v93.091c0,6.435,5.201,11.636,11.636,11.636
			c6.435,0,11.636-5.201,11.636-11.636v-93.091C360.727,354.292,355.526,349.091,349.091,349.091z"/>
	</g>
</g>
<g>
	<g>
		<path d="M256,349.091c-6.435,0-11.636,5.201-11.636,11.636v93.091c0,6.435,5.201,11.636,11.636,11.636
			c6.435,0,11.636-5.201,11.636-11.636v-93.091C267.636,354.292,262.435,349.091,256,349.091z"/>
	</g>
</g>
<g>
	<g>
		<path d="M302.545,349.091c-6.435,0-11.636,5.201-11.636,11.636v116.364c0,6.435,5.201,11.636,11.636,11.636
			c6.435,0,11.636-5.201,11.636-11.636V360.727C314.182,354.292,308.98,349.091,302.545,349.091z"/>
	</g>
</g>
<g>
	<g>
		<path d="M209.455,349.091c-6.435,0-11.636,5.201-11.636,11.636v116.364c0,6.435,5.201,11.636,11.636,11.636
			c6.435,0,11.636-5.201,11.636-11.636V360.727C221.091,354.292,215.889,349.091,209.455,349.091z"/>
	</g>
</g>
<g>
	<g>
		<path d="M418.909,244.364h-93.091c-6.435,0-11.636,5.201-11.636,11.636c0,6.435,5.201,11.636,11.636,11.636h93.091
			c6.435,0,11.636-5.201,11.636-11.636C430.545,249.565,425.344,244.364,418.909,244.364z"/>
	</g>
</g>
</svg>