<?xml version="1.0" encoding="UTF-8" standalone="no"?>
<!DOCTYPE svg PUBLIC "-//W3C//DTD SVG 1.1//EN" "http://www.w3.org/Graphics/SVG/1.1/DTD/svg11.dtd">
<svg width="100%" height="100%" viewBox="0 0 2002 1670" version="1.1" xmlns="http://www.w3.org/2000/svg" xmlns:xlink="http://www.w3.org/1999/xlink" xml:space="preserve" xmlns:serif="http://www.serif.com/" style="fill-rule:evenodd;clip-rule:evenodd;stroke-linejoin:round;stroke-miterlimit:2;">
    <g id="Ebene-3" serif:id="Ebene 3" transform="matrix(4.16667,0,0,4.16667,0,0)">
        <g transform="matrix(0.267669,0,0,0.26365,-56.1042,11.1023)">
            <rect x="210.835" y="1064.05" width="1790.89" height="409.945" style="fill:white;"/>
        </g>
        <g transform="matrix(0.213741,0,0,0.213741,-132.537,-66.917)">
            <path d="M2866.92,1677.01L2866.92,2185.48L621.204,2185.48L621.204,1677.01L2866.92,1677.01ZM1067.65,1836.87L1024.33,1836.87L951.416,2028.98L994.199,2028.98L1009.27,1986.19L1081.1,1986.19L1095.63,2028.98L1139.49,2028.98L1067.65,1836.87ZM1219.94,1836.87L1177.7,1836.87L1177.7,2028.98L1219.94,2028.98L1219.94,1967.1L1244.16,1942.61L1302.01,2028.98L1355.01,2028.98L1272.68,1912.75L1347.75,1836.87L1295.01,1836.87L1219.94,1916.51L1219.94,1836.87ZM1489.27,1836.87L1445.95,1836.87L1373.04,2028.98L1415.82,2028.98L1430.89,1986.19L1502.72,1986.19L1517.25,2028.98L1561.11,2028.98L1489.27,1836.87ZM1682.19,1836.87L1599.32,1836.87L1599.32,2028.98L1682.19,2028.98C1740.85,2028.98 1769.37,1987.55 1769.37,1931.85C1769.37,1868.08 1731.97,1836.87 1682.19,1836.87ZM1963.9,1836.87L1820.22,1836.87L1820.22,2028.98L1966.05,2028.98L1966.05,1993.47L1862.46,1993.47L1862.46,1946.38L1955.56,1946.38L1955.56,1913.55L1862.46,1913.55L1862.46,1872.39L1963.9,1872.39L1963.9,1836.87ZM2075.56,1836.87L2016.08,1836.87L2016.08,2028.98L2055.65,2028.98L2055.65,1894.18L2056.19,1894.18L2103.26,2028.98L2135.83,2028.98L2182.9,1892.83L2183.45,1892.83L2183.45,2028.98L2223.01,2028.98L2223.01,1836.87L2163.54,1836.87L2121.02,1968.98L2120.49,1968.98L2075.56,1836.87ZM2323.89,1836.87L2281.64,1836.87L2281.64,2028.98L2323.89,2028.98L2323.89,1836.87ZM2526.22,1836.87L2382.55,1836.87L2382.55,2028.98L2528.38,2028.98L2528.38,1993.47L2424.79,1993.47L2424.79,1946.38L2517.88,1946.38L2517.88,1913.55L2424.79,1913.55L2424.79,1872.39L2526.22,1872.39L2526.22,1836.87ZM1679.23,1993.47L1641.56,1993.47L1641.56,1872.39L1671.7,1872.39C1713.67,1872.39 1727.12,1897.14 1727.12,1935.88C1727.12,1978.39 1703.72,1993.47 1679.23,1993.47ZM1070.07,1954.72L1020.3,1954.72L1045.32,1884.22L1045.86,1884.22L1070.07,1954.72ZM1491.69,1954.72L1441.92,1954.72L1466.94,1884.22L1467.48,1884.22L1491.69,1954.72Z" style="fill:rgb(227,6,19);stroke:white;stroke-width:1.12px;"/>
        </g>
        <g transform="matrix(-0.173482,0.873529,0.873529,0.173482,250.439,65.7871)">
            <path d="M-84.742,48.867L-63.638,48.867L-40.117,-69.567L-61.209,-69.627L-84.742,48.867Z" style="fill:white;"/>
        </g>
        <g transform="matrix(0.890589,0,0,0.890589,286.521,70.6642)">
            <path d="M0,41.571L-1.252,47.087C-2.584,52.148 -4.599,59.322 -15.177,68.425C-28.121,79.238 -49.592,82.906 -66.023,82.661C-82.446,82.507 -100.026,80.957 -111.473,71.381C-123.459,61.184 -121.979,49.512 -121.517,45.615C-121.517,45.615 -121.376,44.295 -120.886,41.882C-117.544,25.154 -104.525,-41.335 -104.525,-41.335L-72.458,-41.335C-72.458,-41.335 -87.344,34.56 -88.052,38.071C-88.668,42.179 -88.209,45.461 -84.532,47.319C-78.231,50.502 -67.652,51.38 -61.494,51.219C-48.099,50.75 -41.402,47.939 -38.227,46.403C-34.872,44.782 -32.758,42.138 -31.371,37.205L-31.371,37.283L-15.697,-41.335L16.414,-41.335L0,41.571Z" style="fill:white;"/>
        </g>
        <g transform="matrix(0.890589,0,0,0.890589,183.259,142.799)">
            <path d="M0,-122.244L-121.935,-122.332L-127.777,-92.756L-82.484,-92.756L-100.929,0.088L-68.47,0.088L-50.08,-92.756L-5.876,-92.756L0,-122.244Z" style="fill:white;"/>
        </g>
        <g transform="matrix(0.890589,0,0,0.890589,412.822,144.281)">
            <path d="M0,-161.737L-66.068,-71.598L-85.85,-123.996L-119.396,-123.996L-76.815,0L39.523,-161.737L0,-161.737Z" style="fill:rgb(227,6,19);"/>
        </g>
        <g transform="matrix(0.890589,0,0,0.890589,93.0347,204.031)">
            <path d="M0,-22.837L-6.415,-5.838L7.056,-5.838L0,-22.837ZM25.595,10.456L13.856,10.456L10.264,1.796L-9.301,1.796L-12.573,10.456L-24.12,10.456L-6.479,-33.293L6.158,-33.293L25.595,10.456Z" style="fill:white;fill-rule:nonzero;"/>
        </g>
        <g transform="matrix(0.890589,0,0,0.890589,167.54,213.857)">
            <path d="M0,-44.326L0,-19.501C0,-5.003 -9.879,0 -21.875,0C-34.576,0 -43.749,-5.901 -43.749,-19.436L-43.749,-44.326L-32.844,-44.326L-32.844,-19.18C-32.844,-12.893 -28.289,-9.109 -22.003,-9.109C-16.229,-9.109 -10.905,-12.124 -10.905,-19.949L-10.905,-44.326L0,-44.326Z" style="fill:white;fill-rule:nonzero;"/>
        </g>
        <g transform="matrix(0.890589,0,0,0.890589,212.953,203.231)">
            <path d="M0,-21.04C-6.351,-23.863 -10.135,-24.953 -13.856,-24.953C-17.769,-24.953 -20.271,-23.542 -20.271,-21.361C-20.271,-14.754 1.989,-16.614 1.989,-1.347C1.989,7.057 -5.067,11.932 -14.818,11.932C-22.452,11.932 -26.236,9.943 -30.599,7.698L-30.599,-1.731C-24.312,2.438 -20.463,3.913 -15.652,3.913C-11.482,3.913 -9.237,2.438 -9.237,-0.128C-9.237,-7.312 -31.497,-4.683 -31.497,-20.398C-31.497,-27.969 -24.954,-32.972 -14.818,-32.972C-9.943,-32.972 -5.517,-31.945 0,-29.572L0,-21.04Z" style="fill:white;fill-rule:nonzero;"/>
        </g>
        <g transform="matrix(0.890589,0,0,0.890589,267.337,206.201)">
            <path d="M0,-27.711L-15.845,-27.711L-15.845,8.019L-26.75,8.019L-26.75,-27.711L-42.595,-27.711L-42.595,-35.73L0,-35.73L0,-27.711Z" style="fill:white;fill-rule:nonzero;"/>
        </g>
        <g transform="matrix(0.890589,0,0,0.890589,293.783,197.348)">
            <path d="M0,-7.827L5.773,-7.827C8.789,-7.827 11.739,-9.109 11.739,-12.83C11.739,-16.101 9.622,-17.769 5.517,-17.769L0,-17.769L0,-7.827ZM8.66,-25.788C17.641,-25.788 22.965,-19.758 22.965,-13.215C22.965,-8.403 20.463,-4.811 15.46,-2.503C19.95,-0.257 21.297,5.132 27.455,17.961L15.46,17.961C10.777,8.595 9.045,0.193 3.144,0.193L0,0.193L0,17.961L-10.905,17.961L-10.905,-25.788L8.66,-25.788Z" style="fill:white;fill-rule:nonzero;"/>
        </g>
        <g transform="matrix(-0.890589,0,0,0.890589,813.33,-75.5085)">
            <rect x="525.582" y="280.589" width="10.905" height="43.749" style="fill:white;"/>
        </g>
        <g transform="matrix(0.890589,0,0,0.890589,382.784,204.031)">
            <path d="M0,-22.837L-6.415,-5.838L7.056,-5.838L0,-22.837ZM25.595,10.456L13.855,10.456L10.264,1.796L-9.302,1.796L-12.573,10.456L-24.12,10.456L-6.479,-33.293L6.158,-33.293L25.595,10.456Z" style="fill:white;fill-rule:nonzero;"/>
        </g>
    </g>
</svg>
