<?xml version="1.0" encoding="UTF-8" standalone="no"?>
<!DOCTYPE svg PUBLIC "-//W3C//DTD SVG 1.1//EN" "http://www.w3.org/Graphics/SVG/1.1/DTD/svg11.dtd">
<svg width="100%" height="100%" viewBox="0 0 417 338" version="1.1" xmlns="http://www.w3.org/2000/svg" xmlns:xlink="http://www.w3.org/1999/xlink" xml:space="preserve" xmlns:serif="http://www.serif.com/" style="fill-rule:evenodd;clip-rule:evenodd;stroke-linejoin:round;stroke-miterlimit:2;">
    <g id="Ebene-3" serif:id="Ebene 3" transform="matrix(0.773077,0,0,0.751823,-115.257,-56.693)">
        <g transform="matrix(538.972,0,0,538.972,149.089,463.5)">
            <rect x="-0" y="-0.113" width="1" height="0.226" style="fill:url(#_Linear1);"/>
        </g>
        <g transform="matrix(1,0,0,1,228.34,440.849)">
            <path d="M0,46.106L10.268,46.106L13.884,35.838L31.125,35.838L34.612,46.106L45.138,46.106L27.896,0L17.5,0L0,46.106ZM22.537,11.365L22.666,11.365L28.478,28.284L16.531,28.284L22.537,11.365ZM54.308,46.106L64.446,46.106L64.446,31.254L70.258,25.377L84.142,46.106L96.863,46.106L77.103,18.21L95.119,0L82.462,0L64.446,19.114L64.446,0L54.308,0L54.308,46.106ZM101.189,46.106L111.457,46.106L115.073,35.838L132.314,35.838L135.801,46.106L146.327,46.106L129.085,0L118.689,0L101.189,46.106ZM123.726,11.365L123.855,11.365L129.667,28.284L117.72,28.284L123.726,11.365ZM155.497,46.106L175.386,46.106C189.463,46.106 196.309,36.162 196.309,22.794C196.309,7.491 187.332,0 175.386,0L155.497,0L155.497,46.106ZM165.635,8.524L172.868,8.524C182.941,8.524 186.17,14.464 186.17,23.763C186.17,33.966 180.552,37.583 174.676,37.583L165.635,37.583L165.635,8.524ZM208.513,46.106L243.513,46.106L243.513,37.583L218.651,37.583L218.651,26.282L240.994,26.282L240.994,18.404L218.651,18.404L218.651,8.524L242.996,8.524L242.996,0L208.513,0L208.513,46.106ZM255.52,46.106L265.016,46.106L265.016,13.754L265.146,13.754L276.442,46.106L284.26,46.106L295.557,13.431L295.689,13.431L295.689,46.106L305.182,46.106L305.182,0L290.91,0L280.704,31.706L280.578,31.706L269.795,0L255.52,0L255.52,46.106ZM319.255,46.106L329.394,46.106L329.394,0L319.255,0L319.255,46.106ZM343.471,46.106L378.471,46.106L378.471,37.583L353.609,37.583L353.609,26.282L375.952,26.282L375.952,18.404L353.609,18.404L353.609,8.524L377.954,8.524L377.954,0L343.471,0L343.471,46.106Z" style="fill:white;fill-rule:nonzero;"/>
        </g>
        <g transform="matrix(-0.194795,0.980844,0.980844,0.194795,430.025,149.007)">
            <path d="M-84.742,48.867L-63.638,48.867L-40.117,-69.567L-61.209,-69.627L-84.742,48.867Z" style="fill:rgb(26,26,24);"/>
        </g>
        <g transform="matrix(1,0,0,1,470.54,154.483)">
            <path d="M0,41.571L-1.252,47.087C-2.584,52.148 -4.599,59.322 -15.177,68.425C-28.121,79.238 -49.592,82.906 -66.023,82.661C-82.446,82.507 -100.026,80.957 -111.473,71.381C-123.459,61.184 -121.979,49.512 -121.517,45.615C-121.517,45.615 -121.376,44.295 -120.886,41.882C-117.544,25.154 -104.525,-41.335 -104.525,-41.335L-72.458,-41.335C-72.458,-41.335 -87.344,34.56 -88.052,38.071C-88.668,42.179 -88.209,45.461 -84.532,47.319C-78.231,50.502 -67.652,51.38 -61.494,51.219C-48.099,50.75 -41.402,47.939 -38.227,46.403C-34.872,44.782 -32.758,42.138 -31.371,37.205L-31.371,37.283L-15.697,-41.335L16.414,-41.335L0,41.571Z" style="fill:rgb(26,26,24);"/>
        </g>
        <g transform="matrix(1,0,0,1,354.592,235.481)">
            <path d="M0,-122.244L-121.935,-122.332L-127.777,-92.756L-82.484,-92.756L-100.929,0.088L-68.47,0.088L-50.08,-92.756L-5.876,-92.756L0,-122.244Z" style="fill:rgb(26,26,24);"/>
        </g>
        <g transform="matrix(1,0,0,1,612.357,237.144)">
            <path d="M0,-161.737L-66.068,-71.598L-85.85,-123.996L-119.396,-123.996L-76.815,0L39.523,-161.737L0,-161.737Z" style="fill:rgb(227,0,15);"/>
        </g>
        <g transform="matrix(1,0,0,1,253.284,304.235)">
            <path d="M0,-22.837L-6.415,-5.838L7.056,-5.838L0,-22.837ZM25.595,10.456L13.856,10.456L10.264,1.796L-9.301,1.796L-12.573,10.456L-24.12,10.456L-6.479,-33.293L6.158,-33.293L25.595,10.456Z" style="fill:rgb(26,26,24);fill-rule:nonzero;"/>
        </g>
        <g transform="matrix(1,0,0,1,336.942,315.268)">
            <path d="M0,-44.326L0,-19.501C0,-5.003 -9.879,0 -21.875,0C-34.576,0 -43.749,-5.901 -43.749,-19.436L-43.749,-44.326L-32.844,-44.326L-32.844,-19.18C-32.844,-12.893 -28.289,-9.109 -22.003,-9.109C-16.229,-9.109 -10.905,-12.124 -10.905,-19.949L-10.905,-44.326L0,-44.326Z" style="fill:rgb(26,26,24);fill-rule:nonzero;"/>
        </g>
        <g transform="matrix(1,0,0,1,387.935,303.337)">
            <path d="M0,-21.04C-6.351,-23.863 -10.135,-24.953 -13.856,-24.953C-17.769,-24.953 -20.271,-23.542 -20.271,-21.361C-20.271,-14.754 1.989,-16.614 1.989,-1.347C1.989,7.057 -5.067,11.932 -14.818,11.932C-22.452,11.932 -26.236,9.943 -30.599,7.698L-30.599,-1.731C-24.312,2.438 -20.463,3.913 -15.652,3.913C-11.482,3.913 -9.237,2.438 -9.237,-0.128C-9.237,-7.312 -31.497,-4.683 -31.497,-20.398C-31.497,-27.969 -24.954,-32.972 -14.818,-32.972C-9.943,-32.972 -5.517,-31.945 0,-29.572L0,-21.04Z" style="fill:rgb(26,26,24);fill-rule:nonzero;"/>
        </g>
        <g transform="matrix(1,0,0,1,448.999,306.672)">
            <path d="M0,-27.711L-15.845,-27.711L-15.845,8.019L-26.75,8.019L-26.75,-27.711L-42.595,-27.711L-42.595,-35.73L0,-35.73L0,-27.711Z" style="fill:rgb(26,26,24);fill-rule:nonzero;"/>
        </g>
        <g transform="matrix(1,0,0,1,478.694,296.73)">
            <path d="M0,-7.827L5.773,-7.827C8.789,-7.827 11.739,-9.109 11.739,-12.83C11.739,-16.101 9.622,-17.769 5.517,-17.769L0,-17.769L0,-7.827ZM8.66,-25.788C17.641,-25.788 22.965,-19.758 22.965,-13.215C22.965,-8.403 20.463,-4.811 15.46,-2.503C19.95,-0.257 21.297,5.132 27.455,17.961L15.46,17.961C10.777,8.595 9.045,0.193 3.144,0.193L0,0.193L0,17.961L-10.905,17.961L-10.905,-25.788L8.66,-25.788Z" style="fill:rgb(26,26,24);fill-rule:nonzero;"/>
        </g>
        <g transform="matrix(-1,0,0,1,1062.07,-9.647)">
            <rect x="525.582" y="280.589" width="10.905" height="43.749" style="fill:rgb(26,26,24);"/>
        </g>
        <g transform="matrix(1,0,0,1,578.63,304.235)">
            <path d="M0,-22.837L-6.415,-5.838L7.056,-5.838L0,-22.837ZM25.595,10.456L13.855,10.456L10.264,1.796L-9.302,1.796L-12.573,10.456L-24.12,10.456L-6.479,-33.293L6.158,-33.293L25.595,10.456Z" style="fill:rgb(26,26,24);fill-rule:nonzero;"/>
        </g>
    </g>
    <defs>
        <linearGradient id="_Linear1" x1="0" y1="0" x2="1" y2="0" gradientUnits="userSpaceOnUse" gradientTransform="matrix(1,0,0,-1,0,-1.14106e-06)"><stop offset="0" style="stop-color:rgb(197,20,21);stop-opacity:1"/><stop offset="0.4" style="stop-color:rgb(227,0,15);stop-opacity:1"/><stop offset="1" style="stop-color:rgb(197,20,21);stop-opacity:1"/></linearGradient>
    </defs>
</svg>
