<?xml version="1.0" encoding="UTF-8" standalone="no"?>
<!DOCTYPE svg PUBLIC "-//W3C//DTD SVG 1.1//EN" "http://www.w3.org/Graphics/SVG/1.1/DTD/svg11.dtd">
<svg width="100%" height="100%" viewBox="0 0 800 800" version="1.1" xmlns="http://www.w3.org/2000/svg" xmlns:xlink="http://www.w3.org/1999/xlink" xml:space="preserve" xmlns:serif="http://www.serif.com/" style="fill-rule:evenodd;clip-rule:evenodd;stroke-linejoin:round;stroke-miterlimit:2;">
    <g transform="matrix(1.1648,0,0,1.1648,-89.7984,-151.5328)">
        <circle cx="420.5" cy="473.5" r="312.5" style="fill:rgb(235,235,235);"/>
    </g>
    <g transform="matrix(0.781128,0,0,0.781128,150.078113,222.060825)">
        <path d="M640,51.2L639.7,63.4C611.6,64.2 594.7,79.2 583.9,103.7C558.9,161.5 480.6,343.7 428.6,462.3L415,462.3L333.1,269.2C300.6,332.8 264.8,399.2 233.9,462.3C233.6,462.6 218.9,462.3 218.9,462C172,352.3 122.8,243.4 75.8,133.4C64.4,106.7 26.4,63.4 0.2,63.7C0.2,60.6 -0.1,53.7 -0.1,49.5L161.8,49.5L161.8,63.4C142.6,64.5 109,76.7 118.5,97.6C140.4,147.3 222.1,337.9 244.1,386.2C259.1,356.5 301.9,277 319.4,243.4C305.5,215.1 260.8,109.5 246.6,83.4C236.9,65.6 210.5,64 190.8,63.7L190.8,49.8L333.3,50.1L333.3,63.2C313.9,63.8 295.2,71 303.9,89.3C322.8,129.3 334.5,157.4 352,194C357.6,183.2 386.7,124.6 400.1,93.2C409,72.6 396.2,64.6 361.5,63.8C361.8,60.2 361.5,53.5 361.8,50.2C406.2,49.9 472.9,49.9 484.9,49.6L484.9,63.2C462.4,64 439.1,76 426.8,94.9L367.6,217.7C374,233.8 430.9,360.5 436.8,374.4L559.2,91.8C550.6,68.7 522.8,63.7 512,63.5L512,49.6L639.8,50.7L640,51.2Z" style="fill-rule:nonzero;"/>
    </g>
</svg>
