<?xml version="1.0" encoding="UTF-8" standalone="no"?>
<!DOCTYPE svg PUBLIC "-//W3C//DTD SVG 1.1//EN" "http://www.w3.org/Graphics/SVG/1.1/DTD/svg11.dtd">
<svg width="100%" height="100%" viewBox="0 0 416 416" version="1.1" xmlns="http://www.w3.org/2000/svg" xmlns:xlink="http://www.w3.org/1999/xlink" xml:space="preserve" xmlns:serif="http://www.serif.com/" style="fill-rule:evenodd;clip-rule:evenodd;">
    <g id="a">
    </g>
    <g transform="matrix(2.21492,0,0,-2.21492,-113.528,503.489)">
        <g id="a1" serif:id="a">
            <g>
                <g transform="matrix(0.386927,0,0,0.386927,145.165,133.409)">
                    <path d="M198.491,0C198.491,-109.624 109.625,-198.49 0,-198.49C-109.623,-198.49 -198.49,-109.624 -198.49,0C-198.49,109.623 -109.623,198.491 0,198.491C109.625,198.491 198.491,109.623 198.491,0Z" style="fill:url(#_Linear1);fill-rule:nonzero;stroke:rgb(93,106,165);stroke-width:18px;"/>
                </g>
                <g transform="matrix(0.386927,0,0,0.386927,145.165,133.409)">
                    <path d="M0.543,190.26C50.843,189.887 104.867,169.766 143.878,123.307C142.218,83.455 70.892,42.603 11.367,-2.373C-38.578,-40.111 -115.006,-75.501 -167.276,-89.405C-216.974,5.747 -180.826,97.217 -118.504,148.633C-89.346,174.146 -45.407,190.601 0.543,190.26Z" style="fill:url(#_Linear2);fill-rule:nonzero;"/>
                </g>
                <g transform="matrix(0.386927,0,0,0.386927,145.165,133.409)">
                    <path d="M107.395,-49.37C107.395,-66.133 101.495,-80.415 89.701,-92.209C77.9,-104.01 63.625,-109.903 46.862,-109.903L-25.313,-109.903C-42.077,-109.903 -56.359,-104.009 -68.153,-92.209C-79.954,-80.415 -85.847,-66.133 -85.847,-49.37L-85.847,131.767C-72.991,131.767 -62.02,125.48 -52.924,112.908C-43.83,100.336 -39.282,85.202 -39.282,67.508L-39.282,-49.37C-39.282,-58.682 -34.626,-63.339 -25.312,-63.339L46.863,-63.339C56.175,-63.339 60.832,-58.683 60.832,-49.37L60.832,6.042C60.832,15.042 56.176,19.698 46.863,20.012L32.893,20.012C14.886,20.638 -0.328,25.338 -12.74,34.119C-25.16,42.893 -31.366,53.713 -31.366,66.576L46.863,66.576C63.626,66.576 77.901,60.675 89.702,48.882C101.496,37.081 107.396,22.806 107.396,6.042L107.396,-49.37L107.395,-49.37Z" style="fill:rgb(117,117,117);fill-rule:nonzero;"/>
                </g>
                <g transform="matrix(0.386927,0,0,0.386927,145.165,133.409)">
                    <path d="M103.971,-51.741C103.971,-68.504 98.071,-82.786 86.277,-94.58C74.476,-106.381 60.201,-112.274 43.438,-112.274L-28.737,-112.274C-45.5,-112.274 -59.782,-106.38 -71.576,-94.58C-83.377,-82.786 -89.27,-68.504 -89.27,-51.741L-89.27,129.395C-76.414,129.395 -65.442,123.108 -56.348,110.536C-47.254,97.964 -42.706,82.83 -42.706,65.136L-42.706,-51.741C-42.706,-61.054 -38.05,-65.71 -28.737,-65.71L43.438,-65.71C52.75,-65.71 57.407,-61.054 57.407,-51.741L57.407,3.671C57.407,12.671 52.751,17.327 43.438,17.64L29.468,17.64C11.461,18.265 -3.753,22.966 -16.165,31.747C-28.584,40.521 -34.79,51.341 -34.79,64.204L43.439,64.204C60.202,64.204 74.477,58.303 86.278,46.51C98.072,34.709 103.972,20.434 103.972,3.671L103.972,-51.741L103.971,-51.741Z" style="fill:white;fill-rule:nonzero;"/>
                </g>
            </g>
        </g>
    </g>
    <defs>
        <linearGradient id="_Linear1" x1="0" y1="0" x2="1" y2="0" gradientUnits="userSpaceOnUse" gradientTransform="matrix(227.719,-325.216,325.216,227.719,-113.859,162.608)"><stop offset="0" style="stop-color:rgb(40,50,116);stop-opacity:1"/><stop offset="0.71" style="stop-color:rgb(40,51,117);stop-opacity:1"/><stop offset="0.97" style="stop-color:rgb(39,63,136);stop-opacity:1"/><stop offset="1" style="stop-color:rgb(39,63,136);stop-opacity:1"/></linearGradient>
        <linearGradient id="_Linear2" x1="0" y1="0" x2="1" y2="0" gradientUnits="userSpaceOnUse" gradientTransform="matrix(114.28,-163.209,163.209,114.28,-109.18,156.168)"><stop offset="0" style="stop-color:rgb(191,200,230);stop-opacity:1"/><stop offset="0.08" style="stop-color:rgb(182,190,221);stop-opacity:1"/><stop offset="0.2" style="stop-color:rgb(159,164,201);stop-opacity:1"/><stop offset="0.36" style="stop-color:rgb(127,130,174);stop-opacity:1"/><stop offset="0.55" style="stop-color:rgb(88,92,146);stop-opacity:1"/><stop offset="0.76" style="stop-color:rgb(40,51,117);stop-opacity:1"/><stop offset="1" style="stop-color:rgb(40,51,117);stop-opacity:1"/></linearGradient>
    </defs>
</svg>
