<?xml version="1.0" ?><svg style="enable-background:new 0 0 512 512;" version="1.1" viewBox="0 0 512 512" xml:space="preserve" xmlns="http://www.w3.org/2000/svg" xmlns:xlink="http://www.w3.org/1999/xlink"><style type="text/css">
	.st0{display:none;}
	.st1{fill:#111111;}
	.st2{fill:#E9ECEF;}
</style><g class="st0" id="Layer_1"/><g id="Layer_4"><rect class="st1" height="384" width="384" x="64" y="64"/><rect class="st2" height="337.9" width="337.9" x="87.3" y="86.6"/><path class="st1" d="M161,329.5c-1.1-0.8-1.6-1.8-1.6-3.4v-25.3c0-0.8,1.1-1.6,2.1-0.8c11.9,8.2,25.8,11.9,39,11.9   c19.3,0,27.2-10,27.2-21.4c0-10-5-18.2-23.5-29l-9.5-5c-27.2-15.3-35.1-30.9-35.1-50.7c0-26.9,18.7-48.6,54.1-48.6   c15.6,0,27.1,2.4,33.7,6.1c1.3,0.5,1.6,1.3,1.6,2.9v23.8c0,1.1-1.1,1.8-2.1,1.1c-8.2-5.3-20.3-7.9-32.7-7.9   c-20.3,0-26.9,11.6-26.9,20.9c0,10,5,17.4,23.2,27.5l8.4,4.5c30.1,16.6,37.8,32.7,37.8,52.5c0,29.3-21.4,49.6-56.2,49.6   C184.9,337.9,170.8,335,161,329.5z M344.2,331.9c0,1.3-0.5,2.4-1.8,2.9c-5.5,2.1-11.6,3.2-19.5,3.2c-20.1,0-31.4-10.6-31.4-35.4   v-72h-15.2c-1.3,0-1.6-0.5-1.6-1.8v-21.2c0-1.3,0.3-2.1,1.8-2.1h15.2c0.3-9.2,1.3-25.3,2.4-30.4c0-1.8,0.8-2.4,1.8-2.6l23.8-3.2   c1.1-0.3,1.8,0,1.8,1.3c-0.5,7.7-0.8,20.6-1.1,34.8h23.1c1.3,0,1.8,0.5,1.8,1.8V229c0,1.3-0.8,1.6-1.8,1.6h-23.4v67.1   c0,10.8,3.7,15.7,13.5,15.7c3.2,0,5.8-0.3,9-1.1c0.8-0.3,1.6,0.3,1.6,1.6V331.9z" id="path"/></g></svg>